<svg xmlns="http://www.w3.org/2000/svg"  viewBox="0 0 50 50" width="100px" height="100px"><path d="M 40 0 C 39.726563 0.0078125 39.4375 0.03125 39.15625 0.0625 C 36.910156 0.304688 34.417969 1.167969 31.75 2.5625 C 29.488281 3.746094 27.101563 5.328125 24.6875 7.21875 C 21.703125 7.230469 17.503906 7.761719 13.28125 10.3125 C 13.269531 10.324219 13.261719 10.332031 13.25 10.34375 C 4.652344 15.824219 4.871094 25.5625 4.875 25.65625 C 4.875 25.667969 4.875 25.675781 4.875 25.6875 C 4.878906 27.269531 5.011719 28.753906 5.28125 30.125 C 5.3125 30.273438 5.375 30.410156 5.46875 30.53125 C 4.664063 32.15625 3.972656 33.734375 3.4375 35.25 C 2.4375 38.085938 1.917969 40.679688 2 42.9375 C 2.082031 45.195313 2.785156 47.175781 4.28125 48.46875 C 6.238281 50.167969 9.109375 50.351563 12.25 49.53125 C 15.367188 48.71875 18.875 46.886719 22.53125 44.28125 C 23.230469 44.339844 23.929688 44.375 24.625 44.375 C 39.59375 44.375 44.5625 31.03125 44.5625 31.03125 C 44.675781 30.726563 44.628906 30.382813 44.445313 30.117188 C 44.257813 29.847656 43.953125 29.6875 43.625 29.6875 L 30.875 29.6875 C 30.410156 29.691406 30.007813 30.015625 29.90625 30.46875 C 29.90625 30.46875 29.71875 31.304688 29.0625 32.15625 C 28.40625 33.007813 27.367188 33.8125 25.375 33.8125 C 22.578125 33.8125 21.558594 32.546875 20.96875 31.15625 C 20.574219 30.222656 20.648438 29.78125 20.625 29.25 L 43.8125 29.25 C 44.332031 29.253906 44.765625 28.859375 44.8125 28.34375 C 45.046875 24.972656 44.675781 21.976563 43.8125 19.375 C 43.863281 19.308594 43.90625 19.234375 43.9375 19.15625 C 45.789063 15.363281 46.925781 11.839844 47.1875 8.8125 C 47.449219 5.785156 46.804688 3.148438 44.9375 1.53125 C 43.628906 0.398438 41.914063 -0.0625 40 0 Z M 40.0625 2 C 41.609375 1.945313 42.800781 2.324219 43.65625 3.0625 C 44.875 4.121094 45.417969 5.992188 45.1875 8.65625 C 44.988281 10.957031 44.144531 13.777344 42.78125 16.84375 C 42.554688 16.398438 42.292969 15.976563 42.03125 15.5625 C 43.03125 13.246094 43.660156 11.136719 43.8125 9.3125 C 43.976563 7.367188 43.59375 5.613281 42.34375 4.53125 C 41.746094 4.011719 41.015625 3.71875 40.21875 3.59375 C 39.421875 3.46875 38.554688 3.535156 37.65625 3.71875 C 35.855469 4.089844 33.84375 4.992188 31.65625 6.3125 C 27.28125 8.953125 22.242188 13.304688 17.46875 18.8125 C 12.695313 24.320313 9.117188 29.921875 7.125 34.625 C 6.128906 36.976563 5.515625 39.101563 5.40625 40.9375 C 5.296875 42.773438 5.710938 44.433594 6.90625 45.46875 C 8.144531 46.542969 9.871094 46.671875 11.75 46.25 C 13.59375 45.835938 15.667969 44.855469 17.90625 43.46875 C 18.449219 43.621094 19.011719 43.761719 19.5625 43.875 C 16.71875 45.710938 14.03125 46.996094 11.75 47.59375 C 8.960938 48.320313 6.871094 48.046875 5.59375 46.9375 C 4.617188 46.09375 4.066406 44.769531 4 42.875 C 3.933594 40.980469 4.371094 38.582031 5.3125 35.90625 C 7.195313 30.558594 11.074219 24.097656 16.4375 17.90625 C 21.800781 11.714844 27.660156 6.96875 32.6875 4.34375 C 35.199219 3.03125 37.488281 2.265625 39.375 2.0625 C 39.609375 2.039063 39.839844 2.007813 40.0625 2 Z M 39.0625 5.53125 C 39.96875 5.488281 40.605469 5.695313 41.03125 6.0625 C 41.625 6.574219 41.945313 7.5625 41.8125 9.15625 C 41.707031 10.410156 41.328125 11.964844 40.65625 13.71875 C 38.457031 11.132813 35.527344 9.347656 32.1875 8.3125 C 32.351563 8.210938 32.527344 8.097656 32.6875 8 C 34.746094 6.757813 36.605469 5.957031 38.0625 5.65625 C 38.425781 5.582031 38.761719 5.546875 39.0625 5.53125 Z M 22.0625 9.40625 C 19.648438 11.519531 17.226563 13.914063 14.90625 16.59375 C 11.707031 20.289063 9.046875 24.078125 6.96875 27.71875 C 6.910156 27.0625 6.875 26.371094 6.875 25.65625 C 6.875 25.644531 6.875 25.636719 6.875 25.625 C 6.875 25.625 6.617188 16.953125 14.3125 12.03125 C 14.320313 12.027344 14.335938 12.035156 14.34375 12.03125 C 17.054688 10.398438 19.742188 9.695313 22.0625 9.40625 Z M 30.03125 9.78125 C 33.988281 10.667969 37.316406 12.585938 39.59375 15.5625 C 39.730469 15.742188 39.871094 15.9375 40 16.125 C 40.039063 16.214844 40.09375 16.300781 40.15625 16.375 C 41.976563 19.136719 42.964844 22.738281 42.8125 27.25 L 19.46875 27.25 C 18.929688 27.25 18.484375 27.679688 18.46875 28.21875 C 18.46875 28.21875 18.324219 30.046875 19.125 31.9375 C 19.925781 33.828125 21.882813 35.8125 25.375 35.8125 C 27.96875 35.8125 29.6875 34.59375 30.625 33.375 C 31.269531 32.539063 31.324219 32.140625 31.46875 31.6875 L 42.0625 31.6875 C 40.667969 34.585938 35.949219 42.375 24.625 42.375 C 18.609375 42.375 12.445313 40.132813 9.21875 34.8125 C 11.113281 30.574219 14.425781 25.480469 18.75 20.4375 C 18.410156 21.601563 18.4375 22.53125 18.4375 22.53125 C 18.453125 23.070313 18.898438 23.5 19.4375 23.5 L 31 23.5 C 31.527344 23.5 31.96875 23.089844 32 22.5625 C 32 22.5625 32.078125 20.914063 31.28125 19.25 C 30.484375 17.585938 28.632813 15.875 25.375 15.875 C 24.230469 15.875 23.265625 16.082031 22.4375 16.40625 C 25.03125 13.773438 27.613281 11.535156 30.03125 9.78125 Z M 25.375 17.875 C 27.992188 17.875 28.945313 18.96875 29.5 20.125 C 29.824219 20.800781 29.734375 21.042969 29.78125 21.5 L 20.65625 21.5 C 20.710938 21.046875 20.65625 20.828125 21 20.15625 C 21.59375 19 22.640625 17.875 25.375 17.875 Z M 8.28125 37.09375 C 10.15625 39.628906 12.660156 41.417969 15.4375 42.59375 C 13.878906 43.441406 12.480469 44.019531 11.3125 44.28125 C 9.777344 44.625 8.773438 44.445313 8.1875 43.9375 C 7.621094 43.445313 7.316406 42.546875 7.40625 41.0625 C 7.472656 39.964844 7.753906 38.621094 8.28125 37.09375 Z"/></svg>