<?xml version="1.0" encoding="UTF-8" standalone="no"?>
<!DOCTYPE svg PUBLIC "-//W3C//DTD SVG 1.1//EN" "http://www.w3.org/Graphics/SVG/1.1/DTD/svg11.dtd">
<!-- Created with Vectornator (http://vectornator.io/) -->
<svg height="100%" stroke-miterlimit="10" style="fill-rule:nonzero;clip-rule:evenodd;stroke-linecap:round;stroke-linejoin:round;" version="1.1" viewBox="0 0 281.257 476.572" width="100%" xml:space="preserve" xmlns="http://www.w3.org/2000/svg" xmlns:vectornator="http://vectornator.io" xmlns:xlink="http://www.w3.org/1999/xlink">
<defs/>
<clipPath id="ArtboardFrame">
<rect height="476.572" width="281.257" x="0" y="0"/>
</clipPath>
<g clip-path="url(#ArtboardFrame)" id="Слой-1" vectornator:layerName="Слой 1">
<path d="M67.9245-31.9151L408.191-31.9151C480.822-31.9151 539.702 5.64487 539.702 51.9774L539.702 451.673C539.702 498.005 480.822 535.565 408.191 535.565L67.9245 535.565C-4.70697 535.565-63.5864 498.005-63.5864 451.673L-63.5864 51.9774C-63.5864 5.64487-4.70697-31.9151 67.9245-31.9151Z" fill="#adadad" fill-rule="nonzero" opacity="0" stroke="#3e68ff" stroke-linecap="butt" stroke-linejoin="round" stroke-width="10"/>
<path d="M144.144 267.516L144.144 459.739" fill="#125488" fill-rule="nonzero" opacity="1" stroke="#125488" stroke-linecap="round" stroke-linejoin="miter" stroke-width="28"/>
<path d="M4.71033 142.716C4.71033 66.2753 65.83 4.30804 141.225 4.30804C216.62 4.30804 277.74 66.2753 277.74 142.716C277.74 219.156 216.62 281.123 141.225 281.123C65.83 281.123 4.71033 219.156 4.71033 142.716Z" fill="#125488" fill-rule="nonzero" opacity="1" stroke="#ffffff" stroke-linecap="butt" stroke-linejoin="round" stroke-width="10"/>
</g>
</svg>
